<svg width="18" height="21" viewBox="0 0 18 21" fill="none" xmlns="http://www.w3.org/2000/svg">
<path d="M6.4375 3H12.0625V1.4375C12.0625 0.929688 12.4531 0.5 13 0.5C13.5078 0.5 13.9375 0.929688 13.9375 1.4375V3H15.5C16.8672 3 18 4.13281 18 5.5V18C18 19.4062 16.8672 20.5 15.5 20.5H3C1.59375 20.5 0.5 19.4062 0.5 18V5.5C0.5 4.13281 1.59375 3 3 3H4.5625V1.4375C4.5625 0.929688 4.95312 0.5 5.5 0.5C6.00781 0.5 6.4375 0.929688 6.4375 1.4375V3ZM2.375 10.1875H5.5V8H2.375V10.1875ZM2.375 12.0625V14.5625H5.5V12.0625H2.375ZM7.375 12.0625V14.5625H11.125V12.0625H7.375ZM13 12.0625V14.5625H16.125V12.0625H13ZM16.125 8H13V10.1875H16.125V8ZM16.125 16.4375H13V18.625H15.5C15.8125 18.625 16.125 18.3516 16.125 18V16.4375ZM11.125 16.4375H7.375V18.625H11.125V16.4375ZM5.5 16.4375H2.375V18C2.375 18.3516 2.64844 18.625 3 18.625H5.5V16.4375ZM11.125 8H7.375V10.1875H11.125V8Z" fill="#010564"/>
</svg>
