<svg width="21" height="24" viewBox="0 0 21 24" fill="none" xmlns="http://www.w3.org/2000/svg">
<path d="M7.125 3H13.875V1.125C13.875 0.515625 14.3438 0 15 0C15.6094 0 16.125 0.515625 16.125 1.125V3H18C19.6406 3 21 4.35938 21 6V21C21 22.6875 19.6406 24 18 24H3C1.3125 24 0 22.6875 0 21V6C0 4.35938 1.3125 3 3 3H4.875V1.125C4.875 0.515625 5.34375 0 6 0C6.60938 0 7.125 0.515625 7.125 1.125V3ZM2.25 21C2.25 21.4219 2.57812 21.75 3 21.75H18C18.375 21.75 18.75 21.4219 18.75 21V9H2.25V21Z" fill="#010564"/>
</svg>
