<svg width="23" height="25" viewBox="0 0 23 25" fill="none" xmlns="http://www.w3.org/2000/svg">
<path d="M14.6533 1.5625V3.125H8.40332V1.5625C8.40332 0.699707 7.70508 0 6.84082 0C5.97656 0 5.27832 0.699707 5.27832 1.5625V3.125H2.93457C1.64062 3.125 0.59082 4.17432 0.59082 5.46875V7.8125H22.4658V5.46875C22.4658 4.17432 21.4165 3.125 20.1221 3.125H17.7783V1.5625C17.7783 0.699707 17.0801 0 16.2158 0C15.3516 0 14.6533 0.699707 14.6533 1.5625ZM22.4658 9.375H0.59082V22.6562C0.59082 23.9502 1.64062 25 2.93457 25H20.1221C21.4165 25 22.4658 23.9502 22.4658 22.6562V9.375ZM19.3408 14.8438C19.3408 15.2734 18.9912 15.625 18.5596 15.625H16.9971C16.5674 15.625 16.2158 15.2734 16.2158 14.8438V13.2812C16.2158 12.8516 16.5674 12.5 16.9971 12.5H18.5596C18.9912 12.5 19.3408 12.8516 19.3408 13.2812V14.8438ZM13.0908 14.8438C13.0908 15.2734 12.7393 15.625 12.3096 15.625H10.7471C10.3174 15.625 9.96582 15.2734 9.96582 14.8438V13.2812C9.96582 12.8516 10.3174 12.5 10.7471 12.5H12.3096C12.7393 12.5 13.0908 12.8516 13.0908 13.2812V14.8438ZM6.05957 12.5C6.48926 12.5 6.84082 12.8516 6.84082 13.2812V14.8438C6.84082 15.2734 6.48926 15.625 6.05957 15.625H4.49707C4.06738 15.625 3.71582 15.2734 3.71582 14.8438V13.2812C3.71582 12.8516 4.06738 12.5 4.49707 12.5H6.05957ZM19.3408 21.0938C19.3408 21.5234 18.9912 21.875 18.5596 21.875H16.9971C16.5674 21.875 16.2158 21.5234 16.2158 21.0938V19.5312C16.2158 19.1016 16.5674 18.75 16.9971 18.75H18.5596C18.9912 18.75 19.3408 19.1016 19.3408 19.5312V21.0938ZM12.3096 18.75C12.7393 18.75 13.0908 19.1016 13.0908 19.5312V21.0938C13.0908 21.5234 12.7393 21.875 12.3096 21.875H10.7471C10.3174 21.875 9.96582 21.5234 9.96582 21.0938V19.5312C9.96582 19.1016 10.3174 18.75 10.7471 18.75H12.3096ZM6.84082 21.0938C6.84082 21.5234 6.48926 21.875 6.05957 21.875H4.49707C4.06738 21.875 3.71582 21.5234 3.71582 21.0938V19.5312C3.71582 19.1016 4.06738 18.75 4.49707 18.75H6.05957C6.48926 18.75 6.84082 19.1016 6.84082 19.5312V21.0938Z" fill="url(#paint0_linear_32_10500)"/>
<defs>
<linearGradient id="paint0_linear_32_10500" x1="11.5283" y1="0" x2="11.5283" y2="25" gradientUnits="userSpaceOnUse">
<stop stop-color="#8DBBFF"/>
<stop offset="1" stop-color="#5F9EFF"/>
</linearGradient>
</defs>
</svg>
