<svg width="17" height="18" viewBox="0 0 17 18" fill="none" xmlns="http://www.w3.org/2000/svg">
<path d="M12.938 6.15868C12.938 4.92882 12.4479 3.74933 11.5757 2.87969C10.7034 2.01004 9.52037 1.52148 8.2868 1.52148C7.05324 1.52148 5.8702 2.01004 4.99793 2.87969C4.12567 3.74933 3.63564 4.92882 3.63564 6.15868C3.63564 11.5687 1.31006 13.1145 1.31006 13.1145H15.2635C15.2635 13.1145 12.938 11.5687 12.938 6.15868Z" stroke="#010564" stroke-width="1.5" stroke-linecap="round" stroke-linejoin="round"/>
<path d="M9.62748 16.2061C9.4912 16.4403 9.29558 16.6347 9.06022 16.7699C8.82485 16.905 8.55801 16.9762 8.2864 16.9762C8.01479 16.9762 7.74794 16.905 7.51258 16.7699C7.27722 16.6347 7.0816 16.4403 6.94531 16.2061" stroke="#010564" stroke-width="1.5" stroke-linecap="round" stroke-linejoin="round"/>
</svg>
