<svg width="11" height="12" viewBox="0 0 11 12" fill="none" xmlns="http://www.w3.org/2000/svg">
<path d="M1 3.00024H2H10" stroke="#010564" stroke-linecap="round" stroke-linejoin="round"/>
<path d="M3.50049 3V2C3.50049 1.73478 3.60585 1.48043 3.79338 1.29289C3.98092 1.10536 4.23527 1 4.50049 1H6.50049C6.7657 1 7.02006 1.10536 7.20759 1.29289C7.39513 1.48043 7.50049 1.73478 7.50049 2V3M9.00049 3V10C9.00049 10.2652 8.89513 10.5196 8.70759 10.7071C8.52006 10.8946 8.2657 11 8.00049 11H3.00049C2.73527 11 2.48092 10.8946 2.29338 10.7071C2.10585 10.5196 2.00049 10.2652 2.00049 10V3H9.00049Z" stroke="#010564" stroke-linecap="round" stroke-linejoin="round"/>
<path d="M4.49951 5.5V8.5" stroke="#010564" stroke-linecap="round" stroke-linejoin="round"/>
<path d="M6.50049 5.49854V8.49854" stroke="#010564" stroke-linecap="round" stroke-linejoin="round"/>
</svg>
