<svg width="15" height="15" viewBox="0 0 15 15" fill="none" xmlns="http://www.w3.org/2000/svg">
<path d="M7.1537 2.70996H2.84448C2.51795 2.70996 2.20479 2.84212 1.97389 3.07737C1.743 3.31262 1.61328 3.63169 1.61328 3.96438V12.7453C1.61328 13.078 1.743 13.3971 1.97389 13.6323C2.20479 13.8675 2.51795 13.9997 2.84448 13.9997H11.4629C11.7894 13.9997 12.1026 13.8675 12.3335 13.6323C12.5644 13.3971 12.6941 13.078 12.6941 12.7453V8.35484" stroke="#010564" stroke-width="1.5" stroke-linecap="round" stroke-linejoin="round"/>
<path d="M11.7719 1.76958C12.0168 1.52006 12.349 1.37988 12.6953 1.37988C13.0417 1.37988 13.3738 1.52006 13.6187 1.76958C13.8636 2.0191 14.0012 2.35752 14.0012 2.71039C14.0012 3.06327 13.8636 3.40169 13.6187 3.65121L7.77051 9.60968L5.30811 10.2369L5.92371 7.72806L11.7719 1.76958Z" stroke="#010564" stroke-width="1.5" stroke-linecap="round" stroke-linejoin="round"/>
</svg>
